<svg width="100%" viewBox="0 0 680 300">
  <defs>
    <marker id="arrow4" viewBox="0 0 10 10" refX="8" refY="5"
      markerWidth="6" markerHeight="6" orient="auto-start-reverse">
      <path d="M2 1L8 5L2 9" fill="none" stroke="context-stroke"
        stroke-width="1.5" stroke-linecap="round" stroke-linejoin="round"/>
    </marker>
  </defs>
  
  <rect x="20" y="20" width="640" height="260" rx="16" fill="var(--color-background-secondary)" stroke="var(--color-border-tertiary)" stroke-width="0.5"/>
  <text x="40" y="45" class="th" font-size="16" fill="var(--color-text-primary)">🔗 Common Integration Patterns</text>
  
  <!-- Pattern 1: Webhook Trigger -->
  <g onclick="sendPrompt('Explain webhook trigger pattern in OpenClaw')">
    <rect x="50" y="70" width="180" height="90" rx="8" fill="var(--color-background-primary)" stroke="var(--color-border-tertiary)" stroke-width="0.5"/>
    
    <g class="node c-coral">
      <rect x="65" y="85" width="60" height="22" rx="4" stroke-width="0.5"/>
      <text x="95" y="96" text-anchor="middle" dominant-baseline="central" font-size="9">Webhook</text>
    </g>
    
    <path d="M125 96 L145 96" fill="none" class="arr" stroke="var(--color-border-secondary)" marker-end="url(#arrow4)"/>
    
    <g class="node c-teal">
      <rect x="155" y="85" width="60" height="22" rx="4" stroke-width="0.5"/>
      <text x="185" y="96" text-anchor="middle" dominant-baseline="central" font-size="9">Process</text>
    </g>
    
    <text x="65" y="125" font-size="10" font-weight="500" fill="var(--color-text-primary)">Webhook Trigger</text>
    <text x="65" y="142" font-size="9" fill="var(--color-text-secondary)">GitHub, Stripe, etc.</text>
  </g>
  
  <!-- Pattern 2: Scheduled Job -->
  <g onclick="sendPrompt('Explain scheduled job pattern in OpenClaw')">
    <rect x="250" y="70" width="180" height="90" rx="8" fill="var(--color-background-primary)" stroke="var(--color-border-tertiary)" stroke-width="0.5"/>
    
    <g class="node c-amber">
      <rect x="265" y="85" width="50" height="22" rx="4" stroke-width="0.5"/>
      <text x="290" y="96" text-anchor="middle" dominant-baseline="central" font-size="9">Cron</text>
    </g>
    
    <path d="M315 96 L335 96" fill="none" class="arr" stroke="var(--color-border-secondary)" marker-end="url(#arrow4)"/>
    
    <g class="node c-blue">
      <rect x="345" y="85" width="70" height="22" rx="4" stroke-width="0.5"/>
      <text x="380" y="96" text-anchor="middle" dominant-baseline="central" font-size="9">Execute</text>
    </g>
    
    <text x="265" y="125" font-size="10" font-weight="500" fill="var(--color-text-primary)">Scheduled Job</text>
    <text x="265" y="142" font-size="9" fill="var(--color-text-secondary)">Daily/hourly tasks</text>
  </g>
  
  <!-- Pattern 3: Event Stream -->
  <g onclick="sendPrompt('Explain event stream pattern in OpenClaw')">
    <rect x="450" y="70" width="190" height="90" rx="8" fill="var(--color-background-primary)" stroke="var(--color-border-tertiary)" stroke-width="0.5"/>
    
    <g class="node c-green">
      <rect x="465" y="85" width="50" height="22" rx="4" stroke-width="0.5"/>
      <text x="490" y="96" text-anchor="middle" dominant-baseline="central" font-size="9">Event</text>
    </g>
    
    <path d="M515 96 L535 96" fill="none" class="arr" stroke="var(--color-border-secondary)" marker-end="url(#arrow4)"/>
    
    <g class="node c-purple">
      <rect x="545" y="85" width="50" height="22" rx="4" stroke-width="0.5"/>
      <text x="570" y="96" text-anchor="middle" dominant-baseline="central" font-size="9">Route</text>
    </g>
    
    <path d="M595 96 L615 96" fill="none" class="arr" stroke="var(--color-border-secondary)" marker-end="url(#arrow4)"/>
    
    <g class="node c-pink">
      <rect x="625" y="85" width="0" height="0"/>
      <text x="625" y="85" text-anchor="middle" font-size="0"></text>
    </g>
    
    <text x="465" y="125" font-size="10" font-weight="500" fill="var(--color-text-primary)">Event Stream</text>
    <text x="465" y="142" font-size="9" fill="var(--color-text-secondary)">Real-time processing</text>
  </g>
  
  <!-- Pattern 4: API Gateway -->
  <g onclick="sendPrompt('Explain API gateway pattern in OpenClaw')">
    <rect x="50" y="180" width="180" height="90" rx="8" fill="var(--color-background-primary)" stroke="var(--color-border-tertiary)" stroke-width="0.5"/>
    
    <g class="node c-blue">
      <rect x="65" y="195" width="60" height="22" rx="4" stroke-width="0.5"/>
      <text x="95" y="206" text-anchor="middle" dominant-baseline="central" font-size="9">Request</text>
    </g>
    
    <path d="M125 206 L145 206" fill="none" class="arr" stroke="var(--color-border-secondary)" marker-end="url(#arrow4)"/>
    
    <g class="node c-teal">
      <rect x="155" y="195" width="60" height="22" rx="4" stroke-width="0.5"/>
      <text x="185" y="206" text-anchor="middle" dominant-baseline="central" font-size="9">Handler</text>
    </g>
    
    <text x="65" y="235" font-size="10" font-weight="500" fill="var(--color-text-primary)">API Gateway</text>
    <text x="65" y="252" font-size="9" fill="var(--color-text-secondary)">REST/GraphQL endpoint</text>
  </g>
  
  <!-- Pattern 5: Queue Worker -->
  <g onclick="sendPrompt('Explain queue worker pattern in OpenClaw')">
    <rect x="250" y="180" width="180" height="90" rx="8" fill="var(--color-background-primary)" stroke="var(--color-border-tertiary)" stroke-width="0.5"/>
    
    <g class="node c-purple">
      <rect x="265" y="195" width="50" height="22" rx="4" stroke-width="0.5"/>
      <text x="290" y="206" text-anchor="middle" dominant-baseline="central" font-size="9">Queue</text>
    </g>
    
    <path d="M315 206 L335 206" fill="none" class="arr" stroke="var(--color-border-secondary)" marker-end="url(#arrow4)"/>
    
    <g class="node c-green">
      <rect x="345" y="195" width="70" height="22" rx="4" stroke-width="0.5"/>
      <text x="380" y="206" text-anchor="middle" dominant-baseline="central" font-size="9">Worker</text>
    </g>
    
    <text x="265" y="235" font-size="10" font-weight="500" fill="var(--color-text-primary)">Queue Worker</text>
    <text x="265" y="252" font-size="9" fill="var(--color-text-secondary)">Async processing</text>
  </g>
  
  <!-- Pattern 6: Pub/Sub -->
  <g onclick="sendPrompt('Explain pub/sub pattern in OpenClaw')">
    <rect x="450" y="180" width="190" height="90" rx="8" fill="var(--color-background-primary)" stroke="var(--color-border-tertiary)" stroke-width="0.5"/>
    
    <g class="node c-coral">
      <rect x="465" y="195" width="50" height="22" rx="4" stroke-width="0.5"/>
      <text x="490" y="206" text-anchor="middle" dominant-baseline="central" font-size="9">Pub</text>
    </g>
    
    <path d="M515 206 L555 206" fill="none" class="arr" stroke="var(--color-border-secondary)" marker-end="url(#arrow4)"/>
    
    <g class="node c-amber">
      <rect x="565" y="195" width="60" height="22" rx="4" stroke-width="0.5"/>
      <text x="595" y="206" text-anchor="middle" dominant-baseline="central" font-size="9">Sub A</text>
    </g>
    
    <path d="M535 210 L535 230 L555 230" fill="none" class="arr" stroke="var(--color-border-secondary)" marker-end="url(#arrow4)"/>
    
    <g class="node c-blue">
      <rect x="565" y="220" width="60" height="22" rx="4" stroke-width="0.5"/>
      <text x="595" y="231" text-anchor="middle" dominant-baseline="central" font-size="9">Sub B</text>
    </g>
    
    <text x="465" y="255" font-size="10" font-weight="500" fill="var(--color-text-primary)">Pub/Sub</text>
    <text x="465" y="270" font-size="9" fill="var(--color-text-secondary)">Multi-consumer</text>
  </g>
</svg>